#tb 0: 1/44100
#media_type 0: audio
#codec_id 0: pcm_s16le
#sample_rate 0: 44100
#channel_layout_name 0: stereo
0,          0,          0,     4096,    16384, 0xcdccee81
0,       4096,       4096,     4096,    16384, 0xada9ed8f
0,       8192,       8192,     4096,    16384, 0xdd43f447
0,      12288,      12288,     4096,    16384, 0xa699f36f
0,      16384,      16384,     4096,    16384, 0x5d6df387
0,      20480,      20480,     4096,    16384, 0x25f7f47d
0,      24576,      24576,     4096,    16384, 0xda69ebc7
0,      28672,      28672,     4096,    16384, 0x3cffee99
0,      32768,      32768,     4096,    16384, 0xcdccee81
0,      36864,      36864,     4096,    16384, 0xada9ed8f
0,      40960,      40960,     4096,    16384, 0xc03fff3d
0,      45056,      45056,     4096,    16384, 0x97e8eca9
0,      49152,      49152,     4096,    16384, 0x10f1eec9
0,      53248,      53248,     4096,    16384, 0x024cfe5b
0,      57344,      57344,     4096,    16384, 0xb7d2d96f
0,      61440,      61440,     4096,    16384, 0xb94dffc3
0,      65536,      65536,     4096,    16384, 0x4d7cec9b
0,      69632,      69632,     4096,    16384, 0xe828e967
0,      73728,      73728,     4096,    16384, 0x9bf9f0bd
0,      77824,      77824,     4096,    16384, 0x9113e51f
0,      81920,      81920,     4096,    16384, 0x0cc8a36d
0,      86016,      86016,     4096,    16384, 0x2693cefd
0,      90112,      90112,     4096,    16384, 0xe9e65e08
0,      94208,      94208,     4096,    16384, 0x5081a929
0,      98304,      98304,     4096,    16384, 0xbc74f8c5
0,     102400,     102400,     4096,    16384, 0x80ded92b
0,     106496,     106496,     4096,    16384, 0x243cf609
0,     110592,     110592,     4096,    16384, 0x8b79e113
0,     114688,     114688,     4096,    16384, 0x3cdd3288
0,     118784,     118784,     4096,    16384, 0xd464e83f
0,     122880,     122880,     4096,    16384, 0xeba6456e
0,     126976,     126976,     4096,    16384, 0xd01cf73f
0,     131072,     131072,     4096,    16384, 0xbe56f98f
0,     135168,     135168,     4096,    16384, 0x805eefab
0,     139264,     139264,     4096,    16384, 0x3d67ef59
0,     143360,     143360,     4096,    16384, 0x4bfdee5a
0,     147456,     147456,     4096,    16384, 0xc728f92a
0,     151552,     151552,     4096,    16384, 0xcecaed2a
0,     155648,     155648,     4096,    16384, 0x21eaf796
0,     159744,     159744,     4096,    16384, 0x5d64ef6e
0,     163840,     163840,     4096,    16384, 0xd86fee8f
0,     167936,     167936,     4096,    16384, 0x6a10f5d6
0,     172032,     172032,     4096,    16384, 0xadeeef60
0,     176128,     176128,     4096,    16384, 0x53f3be83
0,     180224,     180224,     4096,    16384, 0xbd3ff172
0,     184320,     184320,     4096,    16384, 0x26e9998f
0,     188416,     188416,     4096,    16384, 0x00aff187
0,     192512,     192512,     4096,    16384, 0xeb12aa59
0,     196608,     196608,     4096,    16384, 0x6b3de893
0,     200704,     200704,     4096,    16384, 0x1ad18d27
0,     204800,     204800,     4096,    16384, 0x2044e98b
0,     208896,     208896,     4096,    16384, 0xd7359a4b
0,     212992,     212992,     4096,    16384, 0xbd3ff172
0,     217088,     217088,     4096,    16384, 0x26e9998f
0,     221184,     221184,     4096,    16384, 0x00aff187
0,     225280,     225280,     4096,    16384, 0xeb12aa59
0,     229376,     229376,     4096,    16384, 0x6b3de893
0,     233472,     233472,     4096,    16384, 0x1ad18d27
0,     237568,     237568,     4096,    16384, 0x2044e98b
0,     241664,     241664,     4096,    16384, 0xd7359a4b
0,     245760,     245760,     4096,    16384, 0xbd3ff172
0,     249856,     249856,     4096,    16384, 0x26e9998f
0,     253952,     253952,     4096,    16384, 0x00aff187
0,     258048,     258048,     4096,    16384, 0xeb12aa59
0,     262144,     262144,     2456,     9824, 0xe11980c6
